<?xml version="1.0" encoding="UTF-8" standalone="no"?><svg xmlns="http://www.w3.org/2000/svg" xmlns:xlink="http://www.w3.org/1999/xlink" contentScriptType="application/ecmascript" contentStyleType="text/css" height="1346px" preserveAspectRatio="none" style="width:660px;height:1346px;" version="1.1" viewBox="0 0 660 1346" width="660px" zoomAndPan="magnify"><defs><filter height="300%" id="f1nd39evxrql1i" width="300%" x="-1" y="-1"><feGaussianBlur result="blurOut" stdDeviation="2.0"/><feColorMatrix in="blurOut" result="blurOut2" type="matrix" values="0 0 0 0 0 0 0 0 0 0 0 0 0 0 0 0 0 0 .4 0"/><feOffset dx="4.0" dy="4.0" in="blurOut2" result="blurOut3"/><feBlend in="SourceGraphic" in2="blurOut3" mode="normal"/></filter></defs><g><ellipse cx="154.5" cy="43.4961" fill="#000000" filter="url(#f1nd39evxrql1i)" rx="10" ry="10" style="stroke: none; stroke-width: 1.0;"/><rect fill="#FEFECE" filter="url(#f1nd39evxrql1i)" height="34.1328" style="stroke: #A80036; stroke-width: 1.5;" width="269" x="20" y="73.4961"/><text fill="#000000" font-family="sans-serif" font-size="12" lengthAdjust="spacingAndGlyphs" textLength="249" x="30" y="95.0977">bucket, source_file_name, target_file_name</text><rect fill="#FEFECE" filter="url(#f1nd39evxrql1i)" height="34.1328" rx="12.5" ry="12.5" style="stroke: #A80036; stroke-width: 1.5;" width="117" x="96" y="127.6289"/><text fill="#000000" font-family="sans-serif" font-size="12" lengthAdjust="spacingAndGlyphs" textLength="97" x="106" y="149.2305">get data from s3</text><rect fill="#FF69B4" filter="url(#f1nd39evxrql1i)" height="34.1328" rx="12.5" ry="12.5" style="stroke: #A80036; stroke-width: 1.5;" width="70" x="119.5" y="284.3721"/><text fill="#000000" font-family="sans-serif" font-size="12" lengthAdjust="spacingAndGlyphs" textLength="50" x="129.5" y="305.9736">log error</text><ellipse cx="154.5" cy="358.5713" fill="#FFFFFF" filter="url(#f1nd39evxrql1i)" rx="10" ry="10" style="stroke: #000000; stroke-width: 1.5;"/><line style="stroke: #000000; stroke-width: 2.5;" x1="148.3128" x2="160.6872" y1="352.3841" y2="364.7585"/><line style="stroke: #000000; stroke-width: 2.5;" x1="160.6872" x2="148.3128" y1="352.3841" y2="364.7585"/><polygon fill="#FEFECE" filter="url(#f1nd39evxrql1i)" points="128,235.8945,181,235.8945,193,247.8945,181,259.8945,128,259.8945,116,247.8945,128,235.8945" style="stroke: #A80036; stroke-width: 1.5;"/><text fill="#000000" font-family="sans-serif" font-size="11" lengthAdjust="spacingAndGlyphs" textLength="26" x="158.5" y="270.5293">raise</text><text fill="#000000" font-family="sans-serif" font-size="11" lengthAdjust="spacingAndGlyphs" textLength="53" x="128" y="252.0518">exception</text><rect fill="#FEFECE" filter="url(#f1nd39evxrql1i)" height="34.1328" rx="12.5" ry="12.5" style="stroke: #A80036; stroke-width: 1.5;" width="151" x="79" y="627.1025"/><text fill="#000000" font-family="sans-serif" font-size="12" lengthAdjust="spacingAndGlyphs" textLength="131" x="89" y="648.7041">upload converted data</text><rect fill="#FEFECE" filter="url(#f1nd39evxrql1i)" height="34.1328" rx="12.5" ry="12.5" style="stroke: #A80036; stroke-width: 1.5;" width="96" x="106.5" y="735.3682"/><text fill="#000000" font-family="sans-serif" font-size="12" lengthAdjust="spacingAndGlyphs" textLength="76" x="116.5" y="756.9697">build dataset</text><rect fill="#FEFECE" filter="url(#f1nd39evxrql1i)" height="34.1328" rx="12.5" ry="12.5" style="stroke: #A80036; stroke-width: 1.5;" width="123" x="93" y="789.501"/><text fill="#000000" font-family="sans-serif" font-size="12" lengthAdjust="spacingAndGlyphs" textLength="103" x="103" y="811.1025">hourly resampling</text><rect fill="#FEFECE" filter="url(#f1nd39evxrql1i)" height="34.1328" rx="12.5" ry="12.5" style="stroke: #A80036; stroke-width: 1.5;" width="147" x="81" y="843.6338"/><text fill="#000000" font-family="sans-serif" font-size="12" lengthAdjust="spacingAndGlyphs" textLength="127" x="91" y="865.2354">write resampled chart</text><rect fill="#FEFECE" filter="url(#f1nd39evxrql1i)" height="34.1328" rx="12.5" ry="12.5" style="stroke: #A80036; stroke-width: 1.5;" width="165" x="72" y="941.7666"/><text fill="#000000" font-family="sans-serif" font-size="12" lengthAdjust="spacingAndGlyphs" textLength="145" x="82" y="963.3682">describe numeric feature</text><polygon fill="#FEFECE" filter="url(#f1nd39evxrql1i)" points="131.5,897.7666,177.5,897.7666,189.5,909.7666,177.5,921.7666,131.5,921.7666,119.5,909.7666,131.5,897.7666" style="stroke: #A80036; stroke-width: 1.5;"/><text fill="#000000" font-family="sans-serif" font-size="11" lengthAdjust="spacingAndGlyphs" textLength="46" x="131.5" y="913.9238">attribute</text><rect fill="#FEFECE" filter="url(#f1nd39evxrql1i)" height="34.1328" style="stroke: #A80036; stroke-width: 1.5;" width="63" x="123" y="1017.8994"/><text fill="#000000" font-family="sans-serif" font-size="12" lengthAdjust="spacingAndGlyphs" textLength="43" x="133" y="1039.501">dataset</text><rect fill="#FEFECE" filter="url(#f1nd39evxrql1i)" height="34.1328" rx="12.5" ry="12.5" style="stroke: #A80036; stroke-width: 1.5;" width="116" x="96.5" y="1072.0322"/><text fill="#000000" font-family="sans-serif" font-size="12" lengthAdjust="spacingAndGlyphs" textLength="96" x="106.5" y="1093.6338">correlation_chart</text><rect fill="#FEFECE" filter="url(#f1nd39evxrql1i)" height="34.1328" style="stroke: #A80036; stroke-width: 1.5;" width="187" x="61" y="1126.165"/><text fill="#000000" font-family="sans-serif" font-size="12" lengthAdjust="spacingAndGlyphs" textLength="167" x="71" y="1147.7666">eda_bucket, charts_directory</text><rect fill="#FEFECE" filter="url(#f1nd39evxrql1i)" height="34.1328" rx="12.5" ry="12.5" style="stroke: #A80036; stroke-width: 1.5;" width="101" x="104" y="1180.2979"/><text fill="#000000" font-family="sans-serif" font-size="12" lengthAdjust="spacingAndGlyphs" textLength="81" x="114" y="1201.8994">upload_charts</text><polygon fill="#FEFECE" filter="url(#f1nd39evxrql1i)" points="140.5,1234.4307,168.5,1234.4307,180.5,1246.4307,168.5,1258.4307,140.5,1258.4307,128.5,1246.4307,140.5,1234.4307" style="stroke: #A80036; stroke-width: 1.5;"/><text fill="#000000" font-family="sans-serif" font-size="11" lengthAdjust="spacingAndGlyphs" textLength="28" x="140.5" y="1250.5879">chart</text><ellipse cx="91" cy="1288.4307" fill="none" filter="url(#f1nd39evxrql1i)" rx="10" ry="10" style="stroke: #000000; stroke-width: 1.0;"/><ellipse cx="91.5" cy="1288.9307" fill="#000000" filter="url(#f1nd39evxrql1i)" rx="6" ry="6" style="stroke: none; stroke-width: 1.0;"/><rect fill="#FEFECE" filter="url(#f1nd39evxrql1i)" height="34.1328" rx="12.5" ry="12.5" style="stroke: #A80036; stroke-width: 1.5;" width="93" x="358" y="410.5713"/><text fill="#000000" font-family="sans-serif" font-size="12" lengthAdjust="spacingAndGlyphs" textLength="73" x="368" y="432.1729">read raw file</text><rect fill="#FEFECE" filter="url(#f1nd39evxrql1i)" height="34.1328" style="stroke: #A80036; stroke-width: 1.5;" width="88" x="360.5" y="464.7041"/><text fill="#000000" font-family="sans-serif" font-size="12" lengthAdjust="spacingAndGlyphs" textLength="68" x="370.5" y="486.3057">source data</text><rect fill="#FEFECE" filter="url(#f1nd39evxrql1i)" height="34.1328" rx="12.5" ry="12.5" style="stroke: #A80036; stroke-width: 1.5;" width="95" x="357" y="518.8369"/><text fill="#000000" font-family="sans-serif" font-size="12" lengthAdjust="spacingAndGlyphs" textLength="75" x="367" y="540.4385">process data</text><rect fill="#FEFECE" filter="url(#f1nd39evxrql1i)" height="34.1328" rx="12.5" ry="12.5" style="stroke: #A80036; stroke-width: 1.5;" width="91" x="359" y="572.9697"/><text fill="#000000" font-family="sans-serif" font-size="12" lengthAdjust="spacingAndGlyphs" textLength="71" x="369" y="594.5713">write csv file</text><polygon fill="#FFA500" filter="url(#f1nd39evxrql1i)" points="519,181.7617,618,181.7617,628,198.8281,618,215.8945,519,215.8945" style="stroke: #A80036; stroke-width: 1.5;"/><text fill="#000000" font-family="sans-serif" font-size="12" lengthAdjust="spacingAndGlyphs" textLength="79" x="529" y="203.3633">download_file</text><polygon fill="#FFA500" filter="url(#f1nd39evxrql1i)" points="527,681.2354,610,681.2354,620,698.3018,610,715.3682,527,715.3682" style="stroke: #A80036; stroke-width: 1.5;"/><text fill="#000000" font-family="sans-serif" font-size="12" lengthAdjust="spacingAndGlyphs" textLength="63" x="537" y="702.8369">upload_file</text><polygon fill="#FFA500" filter="url(#f1nd39evxrql1i)" points="527,1278.4307,610,1278.4307,620,1295.4971,610,1312.5635,527,1312.5635" style="stroke: #A80036; stroke-width: 1.5;"/><text fill="#000000" font-family="sans-serif" font-size="12" lengthAdjust="spacingAndGlyphs" textLength="63" x="537" y="1300.0322">upload_file</text><polygon fill="#A80036" points="618,1287.4971,622,1277.4971,626,1287.4971,622,1283.4971" style="stroke: #A80036; stroke-width: 1.0;"/><line style="stroke: #A80036; stroke-width: 1.5;" x1="154.5" x2="154.5" y1="53.4961" y2="73.4961"/><polygon fill="#A80036" points="150.5,63.4961,154.5,73.4961,158.5,63.4961,154.5,67.4961" style="stroke: #A80036; stroke-width: 1.0;"/><line style="stroke: #A80036; stroke-width: 1.5;" x1="154.5" x2="154.5" y1="107.6289" y2="127.6289"/><polygon fill="#A80036" points="150.5,117.6289,154.5,127.6289,158.5,117.6289,154.5,121.6289" style="stroke: #A80036; stroke-width: 1.0;"/><line style="stroke: #A80036; stroke-width: 1.5;" x1="154.5" x2="154.5" y1="318.5049" y2="348.5713"/><polygon fill="#A80036" points="150.5,338.5713,154.5,348.5713,158.5,338.5713,154.5,342.5713" style="stroke: #A80036; stroke-width: 1.0;"/><line style="stroke: #A80036; stroke-width: 1.5;" x1="154.5" x2="154.5" y1="259.8945" y2="284.3721"/><polygon fill="#A80036" points="150.5,274.3721,154.5,284.3721,158.5,274.3721,154.5,278.3721" style="stroke: #A80036; stroke-width: 1.0;"/><line style="stroke: #A80036; stroke-width: 1.5;" x1="193" x2="404.5" y1="247.8945" y2="247.8945"/><polygon fill="#A80036" points="400.5,328.5049,404.5,338.5049,408.5,328.5049,404.5,332.5049" style="stroke: #A80036; stroke-width: 1.5;"/><line style="stroke: #A80036; stroke-width: 1.5;" x1="404.5" x2="404.5" y1="247.8945" y2="410.5713"/><polygon fill="#A80036" points="400.5,400.5713,404.5,410.5713,408.5,400.5713,404.5,404.5713" style="stroke: #A80036; stroke-width: 1.0;"/><line style="stroke: #A80036; stroke-width: 1.5;" x1="154.5" x2="154.5" y1="769.501" y2="789.501"/><polygon fill="#A80036" points="150.5,779.501,154.5,789.501,158.5,779.501,154.5,783.501" style="stroke: #A80036; stroke-width: 1.0;"/><line style="stroke: #A80036; stroke-width: 1.5;" x1="154.5" x2="154.5" y1="823.6338" y2="843.6338"/><polygon fill="#A80036" points="150.5,833.6338,154.5,843.6338,158.5,833.6338,154.5,837.6338" style="stroke: #A80036; stroke-width: 1.0;"/><line style="stroke: #A80036; stroke-width: 1.5;" x1="154.5" x2="154.5" y1="921.7666" y2="941.7666"/><polygon fill="#A80036" points="150.5,931.7666,154.5,941.7666,158.5,931.7666,154.5,935.7666" style="stroke: #A80036; stroke-width: 1.0;"/><line style="stroke: #A80036; stroke-width: 1.5;" x1="154.5" x2="154.5" y1="975.8994" y2="985.8994"/><line style="stroke: #A80036; stroke-width: 1.5;" x1="154.5" x2="249" y1="985.8994" y2="985.8994"/><polygon fill="#A80036" points="245,956.833,249,946.833,253,956.833,249,952.833" style="stroke: #A80036; stroke-width: 1.5;"/><line style="stroke: #A80036; stroke-width: 1.5;" x1="249" x2="249" y1="909.7666" y2="985.8994"/><line style="stroke: #A80036; stroke-width: 1.5;" x1="249" x2="189.5" y1="909.7666" y2="909.7666"/><polygon fill="#A80036" points="199.5,905.7666,189.5,909.7666,199.5,913.7666,195.5,909.7666" style="stroke: #A80036; stroke-width: 1.0;"/><line style="stroke: #A80036; stroke-width: 1.5;" x1="119.5" x2="60" y1="909.7666" y2="909.7666"/><polygon fill="#A80036" points="56,942.833,60,952.833,64,942.833,60,946.833" style="stroke: #A80036; stroke-width: 1.5;"/><line style="stroke: #A80036; stroke-width: 1.5;" x1="60" x2="60" y1="909.7666" y2="997.8994"/><line style="stroke: #A80036; stroke-width: 1.5;" x1="60" x2="154.5" y1="997.8994" y2="997.8994"/><line style="stroke: #A80036; stroke-width: 1.5;" x1="154.5" x2="154.5" y1="997.8994" y2="1017.8994"/><polygon fill="#A80036" points="150.5,1007.8994,154.5,1017.8994,158.5,1007.8994,154.5,1011.8994" style="stroke: #A80036; stroke-width: 1.0;"/><line style="stroke: #A80036; stroke-width: 1.5;" x1="154.5" x2="154.5" y1="877.7666" y2="897.7666"/><polygon fill="#A80036" points="150.5,887.7666,154.5,897.7666,158.5,887.7666,154.5,891.7666" style="stroke: #A80036; stroke-width: 1.0;"/><line style="stroke: #A80036; stroke-width: 1.5;" x1="154.5" x2="154.5" y1="1052.0322" y2="1072.0322"/><polygon fill="#A80036" points="150.5,1062.0322,154.5,1072.0322,158.5,1062.0322,154.5,1066.0322" style="stroke: #A80036; stroke-width: 1.0;"/><line style="stroke: #A80036; stroke-width: 1.5;" x1="154.5" x2="154.5" y1="1106.165" y2="1126.165"/><polygon fill="#A80036" points="150.5,1116.165,154.5,1126.165,158.5,1116.165,154.5,1120.165" style="stroke: #A80036; stroke-width: 1.0;"/><line style="stroke: #A80036; stroke-width: 1.5;" x1="154.5" x2="154.5" y1="1160.2979" y2="1180.2979"/><polygon fill="#A80036" points="150.5,1170.2979,154.5,1180.2979,158.5,1170.2979,154.5,1174.2979" style="stroke: #A80036; stroke-width: 1.0;"/><line style="stroke: #A80036; stroke-width: 1.5;" x1="128.5" x2="91" y1="1246.4307" y2="1246.4307"/><line style="stroke: #A80036; stroke-width: 1.5;" x1="91" x2="91" y1="1246.4307" y2="1278.4307"/><polygon fill="#A80036" points="87,1268.4307,91,1278.4307,95,1268.4307,91,1272.4307" style="stroke: #A80036; stroke-width: 1.0;"/><line style="stroke: #A80036; stroke-width: 1.5;" x1="154.5" x2="154.5" y1="1214.4307" y2="1234.4307"/><polygon fill="#A80036" points="150.5,1224.4307,154.5,1234.4307,158.5,1224.4307,154.5,1228.4307" style="stroke: #A80036; stroke-width: 1.0;"/><line style="stroke: #A80036; stroke-width: 1.5;" x1="404.5" x2="404.5" y1="444.7041" y2="464.7041"/><polygon fill="#A80036" points="400.5,454.7041,404.5,464.7041,408.5,454.7041,404.5,458.7041" style="stroke: #A80036; stroke-width: 1.0;"/><line style="stroke: #A80036; stroke-width: 1.5;" x1="404.5" x2="404.5" y1="498.8369" y2="518.8369"/><polygon fill="#A80036" points="400.5,508.8369,404.5,518.8369,408.5,508.8369,404.5,512.8369" style="stroke: #A80036; stroke-width: 1.0;"/><line style="stroke: #A80036; stroke-width: 1.5;" x1="404.5" x2="404.5" y1="552.9697" y2="572.9697"/><polygon fill="#A80036" points="400.5,562.9697,404.5,572.9697,408.5,562.9697,404.5,566.9697" style="stroke: #A80036; stroke-width: 1.0;"/><line style="stroke: #A80036; stroke-width: 1.5;" x1="154.5" x2="154.5" y1="161.7617" y2="166.7617"/><line style="stroke: #A80036; stroke-width: 1.5;" x1="154.5" x2="568.5" y1="166.7617" y2="166.7617"/><line style="stroke: #A80036; stroke-width: 1.5;" x1="568.5" x2="568.5" y1="166.7617" y2="181.7617"/><polygon fill="#A80036" points="564.5,171.7617,568.5,181.7617,572.5,171.7617,568.5,175.7617" style="stroke: #A80036; stroke-width: 1.0;"/><line style="stroke: #A80036; stroke-width: 1.5;" x1="568.5" x2="568.5" y1="215.8945" y2="220.8945"/><line style="stroke: #A80036; stroke-width: 1.5;" x1="568.5" x2="154.5" y1="220.8945" y2="220.8945"/><line style="stroke: #A80036; stroke-width: 1.5;" x1="154.5" x2="154.5" y1="220.8945" y2="235.8945"/><polygon fill="#A80036" points="150.5,225.8945,154.5,235.8945,158.5,225.8945,154.5,229.8945" style="stroke: #A80036; stroke-width: 1.0;"/><line style="stroke: #A80036; stroke-width: 1.5;" x1="404.5" x2="404.5" y1="607.1025" y2="612.1025"/><line style="stroke: #A80036; stroke-width: 1.5;" x1="404.5" x2="154.5" y1="612.1025" y2="612.1025"/><line style="stroke: #A80036; stroke-width: 1.5;" x1="154.5" x2="154.5" y1="612.1025" y2="627.1025"/><polygon fill="#A80036" points="150.5,617.1025,154.5,627.1025,158.5,617.1025,154.5,621.1025" style="stroke: #A80036; stroke-width: 1.0;"/><line style="stroke: #A80036; stroke-width: 1.5;" x1="154.5" x2="154.5" y1="661.2354" y2="666.2354"/><line style="stroke: #A80036; stroke-width: 1.5;" x1="154.5" x2="568.5" y1="666.2354" y2="666.2354"/><line style="stroke: #A80036; stroke-width: 1.5;" x1="568.5" x2="568.5" y1="666.2354" y2="681.2354"/><polygon fill="#A80036" points="564.5,671.2354,568.5,681.2354,572.5,671.2354,568.5,675.2354" style="stroke: #A80036; stroke-width: 1.0;"/><line style="stroke: #A80036; stroke-width: 1.5;" x1="568.5" x2="568.5" y1="715.3682" y2="720.3682"/><line style="stroke: #A80036; stroke-width: 1.5;" x1="568.5" x2="154.5" y1="720.3682" y2="720.3682"/><line style="stroke: #A80036; stroke-width: 1.5;" x1="154.5" x2="154.5" y1="720.3682" y2="735.3682"/><polygon fill="#A80036" points="150.5,725.3682,154.5,735.3682,158.5,725.3682,154.5,729.3682" style="stroke: #A80036; stroke-width: 1.0;"/><line style="stroke: #A80036; stroke-width: 1.5;" x1="154.5" x2="154.5" y1="1258.4307" y2="1266.4307"/><line style="stroke: #A80036; stroke-width: 1.5;" x1="154.5" x2="568.5" y1="1266.4307" y2="1266.4307"/><line style="stroke: #A80036; stroke-width: 1.5;" x1="568.5" x2="568.5" y1="1266.4307" y2="1278.4307"/><polygon fill="#A80036" points="564.5,1268.4307,568.5,1278.4307,572.5,1268.4307,568.5,1272.4307" style="stroke: #A80036; stroke-width: 1.0;"/><line style="stroke: #A80036; stroke-width: 1.5;" x1="568.5" x2="568.5" y1="1312.5635" y2="1322.5635"/><line style="stroke: #A80036; stroke-width: 1.5;" x1="568.5" x2="622" y1="1322.5635" y2="1322.5635"/><line style="stroke: #A80036; stroke-width: 1.5;" x1="622" x2="622" y1="1246.4307" y2="1322.5635"/><line style="stroke: #A80036; stroke-width: 1.5;" x1="622" x2="180.5" y1="1246.4307" y2="1246.4307"/><polygon fill="#A80036" points="190.5,1242.4307,180.5,1246.4307,190.5,1250.4307,186.5,1246.4307" style="stroke: #A80036; stroke-width: 1.0;"/><text fill="#000000" font-family="sans-serif" font-size="18" lengthAdjust="spacingAndGlyphs" textLength="94" x="107" y="29.6992">EDA - mvp</text><text fill="#000000" font-family="sans-serif" font-size="18" lengthAdjust="spacingAndGlyphs" textLength="210" x="299" y="29.6992">Mikrolab data processor</text><text fill="#000000" font-family="sans-serif" font-size="18" lengthAdjust="spacingAndGlyphs" textLength="64" x="541.5" y="29.6992">AWS S3</text><line style="stroke: #000000; stroke-width: 2.0;" x1="10" x2="10" y1="12.2969" y2="1334.5635"/><line style="stroke: #000000; stroke-width: 2.0;" x1="294" x2="294" y1="12.2969" y2="1334.5635"/><line style="stroke: #000000; stroke-width: 2.0;" x1="514" x2="514" y1="12.2969" y2="1334.5635"/><line style="stroke: #000000; stroke-width: 2.0;" x1="648" x2="648" y1="12.2969" y2="1334.5635"/><!--
@startuml
|EDA - mvp|
|Mikrolab data processor|
|AWS S3|
|EDA - mvp|

start
:bucket, source_file_name, target_file_name]
:get data from s3;
|AWS S3|
#Orange:download_file>
|EDA - mvp|
if (exception) then (raise)
    #HotPink:log error;
    end
endif
|Mikrolab data processor|
:read raw file;
:source data]
:process data;
:write csv file;
|EDA - mvp|
:upload converted data;
|AWS S3|
#Orange:upload_file>
|EDA - mvp|
:build dataset;
:hourly resampling;
:write resampled chart; 
while (attribute)
    :describe numeric feature;
endwhile
:dataset]
:correlation_chart;
:eda_bucket, charts_directory]
:upload_charts;
while (chart)
   |AWS S3|
    #Orange:upload_file>
    |EDA - mvp|
endwhile
stop
@enduml

PlantUML version 1.2018.12(Sun Oct 21 12:15:15 CEST 2018)
(GPL source distribution)
Java Runtime: OpenJDK Runtime Environment
JVM: OpenJDK 64-Bit Server VM
Java Version: 11.0.2+9
Operating System: Mac OS X
OS Version: 10.14.3
Default Encoding: UTF-8
Language: en
Country: US
--></g></svg>